<svg width="20" height="20" viewBox="0 0 20 20" fill="none" xmlns="http://www.w3.org/2000/svg">
<path d="M14.6667 4.42523L9.9584 1.89189C9.4584 1.62523 8.86673 1.62523 8.36673 1.89189L3.66673 4.42523C3.32507 4.61689 3.1084 4.98356 3.1084 5.38356C3.1084 5.79189 3.31673 6.15856 3.66673 6.34189L8.37507 8.87523C8.62507 9.00856 8.90007 9.07523 9.16673 9.07523C9.4334 9.07523 9.71673 9.00856 9.9584 8.87523L14.6667 6.34189C15.0084 6.15856 15.2251 5.79189 15.2251 5.38356C15.2251 4.98356 15.0084 4.61689 14.6667 4.42523Z" fill="#EF233C"/>
<path d="M7.60032 9.75865L3.22533 7.57532C2.88366 7.40032 2.50033 7.42532 2.17533 7.61699C1.85866 7.81699 1.66699 8.15865 1.66699 8.53365V12.667C1.66699 13.3837 2.06699 14.0253 2.70866 14.3503L7.08366 16.5337C7.23366 16.6087 7.40032 16.6503 7.56699 16.6503C7.75866 16.6503 7.95866 16.592 8.13366 16.492C8.45033 16.292 8.64199 15.9503 8.64199 15.5753V11.442C8.63366 10.7253 8.23366 10.0837 7.60032 9.75865Z" fill="#EF233C"/>
<path d="M16.6669 8.53365V10.5837C16.2669 10.467 15.8419 10.417 15.4169 10.417C14.2835 10.417 13.1752 10.8087 12.3002 11.5087C11.1002 12.4503 10.4169 13.8753 10.4169 15.417C10.4169 15.8253 10.4669 16.2337 10.5752 16.6253C10.4502 16.6087 10.3252 16.5587 10.2085 16.4837C9.89186 16.292 9.7002 15.9503 9.7002 15.5753V11.442C9.7002 10.7253 10.1002 10.0837 10.7335 9.75865L15.1085 7.57532C15.4502 7.40032 15.8335 7.42532 16.1585 7.61699C16.4752 7.81699 16.6669 8.15865 16.6669 8.53365Z" fill="#EF233C"/>
<path d="M18.0671 12.7665C17.3255 12.0249 16.3422 11.6499 15.3672 11.6665C14.4255 11.6749 13.4838 12.0499 12.7671 12.7665C12.2671 13.2582 11.9422 13.8749 11.7838 14.5165C11.6922 14.8665 11.6588 15.2249 11.6838 15.5832V15.6249C11.6838 15.6832 11.6921 15.7332 11.7005 15.7999C11.7005 15.7999 11.7005 15.7999 11.7088 15.8082V15.8332C11.7838 16.6499 12.1338 17.4415 12.7671 18.0665C13.7338 19.0332 15.0921 19.3582 16.3171 19.0499C16.6838 18.9582 17.0422 18.8082 17.3755 18.6082C17.6255 18.4665 17.8588 18.2832 18.0671 18.0665C18.6921 17.4415 19.0505 16.6499 19.1255 15.8249C19.1338 15.8249 19.1338 15.8082 19.1338 15.7999C19.1505 15.7415 19.1505 15.6749 19.1505 15.6165C19.1505 15.6082 19.1588 15.5915 19.1588 15.5749C19.2088 14.5665 18.8421 13.5332 18.0671 12.7665ZM16.8588 16.8415C16.6171 17.0832 16.2255 17.0832 15.9755 16.8415L15.4255 16.2915L14.8588 16.8582C14.6088 17.1082 14.2171 17.1082 13.9755 16.8582C13.7255 16.6165 13.7255 16.2249 13.9755 15.9749L14.5422 15.4082L13.9922 14.8582C13.7505 14.6082 13.7505 14.2165 13.9922 13.9749C14.2422 13.7249 14.6338 13.7249 14.8838 13.9749L15.4255 14.5249L15.9505 13.9915C16.2005 13.7499 16.5921 13.7499 16.8421 13.9915C17.0838 14.2415 17.0838 14.6332 16.8421 14.8832L16.3088 15.4082L16.8588 15.9499C17.1088 16.1999 17.1088 16.5915 16.8588 16.8415Z" fill="#EF233C"/>
</svg>
