<svg width="18" height="19" viewBox="0 0 18 19" fill="none" xmlns="http://www.w3.org/2000/svg">
<path d="M13.2561 17.1407C12.4498 17.1407 11.6007 16.948 10.7231 16.577C9.86691 16.2131 9.00356 15.7137 8.16163 15.1072C7.32683 14.4936 6.52056 13.8086 5.75711 13.0594C5.0008 12.296 4.31583 11.4897 3.70935 10.662C3.09574 9.80583 2.60342 8.94962 2.2538 8.12195C1.88278 7.23721 1.69727 6.381 1.69727 5.57474C1.69727 5.0182 1.79716 4.49021 1.9898 3.99789C2.18958 3.4913 2.51066 3.02039 2.9459 2.61369C3.4953 2.07143 4.12319 1.80029 4.79388 1.80029C5.07215 1.80029 5.35755 1.86451 5.60014 1.97867C5.87841 2.1071 6.11387 2.29975 6.28511 2.55661L7.94044 4.88977C8.09028 5.09669 8.20444 5.29647 8.28292 5.49625C8.37568 5.7103 8.42562 5.92436 8.42562 6.13127C8.42562 6.4024 8.34714 6.6664 8.1973 6.91613C8.09028 7.10878 7.92617 7.31569 7.71925 7.52261L7.23407 8.0292C7.2412 8.0506 7.24834 8.06487 7.25547 8.07914C7.3411 8.22898 7.51234 8.48584 7.84055 8.87113C8.19017 9.2707 8.51838 9.63459 8.84659 9.96993C9.26756 10.3838 9.61718 10.712 9.94539 10.9831C10.3521 11.3256 10.6161 11.4968 10.7731 11.5753L10.7588 11.611L11.2796 11.0973C11.5008 10.8761 11.7149 10.712 11.9218 10.605C12.3142 10.3624 12.8137 10.3196 13.3131 10.5265C13.4987 10.605 13.6984 10.712 13.9125 10.8618L16.2813 12.5457C16.5453 12.7241 16.738 12.9524 16.8521 13.2235C16.9592 13.4947 17.0091 13.7444 17.0091 13.9941C17.0091 14.3366 16.9306 14.6791 16.7808 15.0001C16.6309 15.3212 16.4454 15.5995 16.21 15.8564C15.8033 16.3059 15.3609 16.6269 14.8472 16.8339C14.3549 17.0336 13.8197 17.1407 13.2561 17.1407ZM4.79388 2.87055C4.40145 2.87055 4.03756 3.04179 3.68795 3.38428C3.35973 3.69108 3.13141 4.02643 2.98871 4.39032C2.83887 4.76134 2.76752 5.15377 2.76752 5.57474C2.76752 6.2383 2.9245 6.95894 3.23844 7.70099C3.55952 8.4573 4.00902 9.24216 4.57983 10.027C5.15063 10.8119 5.79992 11.5753 6.51343 12.296C7.22693 13.0023 7.99752 13.6588 8.78951 14.2367C9.5601 14.8004 10.3521 15.257 11.1369 15.5852C12.357 16.1061 13.4987 16.2274 14.4405 15.8349C14.8044 15.6851 15.1254 15.4568 15.418 15.1286C15.5821 14.9502 15.7105 14.7576 15.8175 14.5292C15.9032 14.3509 15.946 14.1653 15.946 13.9798C15.946 13.8657 15.9246 13.7515 15.8675 13.6231C15.8461 13.5803 15.8033 13.5018 15.6677 13.409L13.2989 11.7252C13.1562 11.6253 13.0277 11.5539 12.9064 11.504C12.7495 11.4398 12.6853 11.3755 12.4427 11.5254C12.3 11.5967 12.1715 11.7038 12.0288 11.8465L11.4866 12.3816C11.2083 12.6527 10.7802 12.7169 10.452 12.5956L10.2593 12.51C9.9668 12.353 9.62431 12.1105 9.24616 11.7894C8.90367 11.4968 8.53265 11.1544 8.08314 10.712C7.73352 10.3552 7.38391 9.97707 7.02002 9.5561C6.68467 9.16367 6.44208 8.82832 6.29224 8.55006L6.20662 8.336C6.16381 8.1719 6.14954 8.07914 6.14954 7.97925C6.14954 7.72239 6.2423 7.49407 6.42067 7.31569L6.9558 6.75916C7.0985 6.61646 7.20553 6.48089 7.27688 6.35959C7.33396 6.26684 7.35537 6.18835 7.35537 6.117C7.35537 6.05992 7.33396 5.9743 7.29829 5.88868C7.24834 5.77452 7.16985 5.64609 7.06996 5.51052L5.41463 3.17022C5.34328 3.07033 5.25766 2.99898 5.15063 2.94904C5.03647 2.89909 4.91518 2.87055 4.79388 2.87055ZM10.7588 11.6181L10.6446 12.1033L10.8373 11.6039C10.8016 11.5967 10.7731 11.6039 10.7588 11.6181Z" fill="#BDC1DF"/>
</svg>
