<svg width="24" height="25" viewBox="0 0 24 25" fill="none" xmlns="http://www.w3.org/2000/svg">
<path d="M7.49983 8.41986V7.44986C7.49983 5.19986 9.30983 2.98986 11.5598 2.77986C12.185 2.71844 12.8161 2.78859 13.4125 2.9858C14.009 3.18301 14.5575 3.50291 15.0228 3.92491C15.4882 4.34691 15.86 4.86166 16.1144 5.43603C16.3687 6.01041 16.5 6.63168 16.4998 7.25986V8.63986M8.99983 22.7499H14.9998C19.0198 22.7499 19.7398 21.1399 19.9498 19.1799L20.6998 13.1799C20.9698 10.7399 20.2698 8.74986 15.9998 8.74986H7.99983C3.72983 8.74986 3.02983 10.7399 3.29983 13.1799L4.04983 19.1799C4.25983 21.1399 4.97983 22.7499 8.99983 22.7499Z" stroke="#BDC1DF" stroke-width="1.5" stroke-miterlimit="10" stroke-linecap="round" stroke-linejoin="round"/>
<path d="M15.4951 12.75H15.5051M8.49512 12.75H8.50312" stroke="#BDC1DF" stroke-width="2" stroke-linecap="round" stroke-linejoin="round"/>
</svg>
