<svg width="20" height="20" viewBox="0 0 20 20" fill="none" xmlns="http://www.w3.org/2000/svg">
<g clip-path="url(#clip0_16077_5245)">
<path d="M9.99935 1.66683C14.6018 1.66683 18.3327 5.39766 18.3327 10.0002C18.3327 14.6027 14.6018 18.3335 9.99935 18.3335C5.39685 18.3335 1.66602 14.6027 1.66602 10.0002C1.66602 5.39766 5.39685 1.66683 9.99935 1.66683ZM9.99935 7.0835V12.0835V7.0835Z" fill="#FF445B"/>
<path d="M9.99935 7.0835V12.0835M9.99935 1.66683C14.6018 1.66683 18.3327 5.39766 18.3327 10.0002C18.3327 14.6027 14.6018 18.3335 9.99935 18.3335C5.39685 18.3335 1.66602 14.6027 1.66602 10.0002C1.66602 5.39766 5.39685 1.66683 9.99935 1.66683Z" stroke="#F5F6FF" stroke-width="1.5" stroke-linecap="round" stroke-linejoin="round"/>
<path d="M7.5 10.4165L10 12.9165L12.5 10.4165" stroke="#F5F6FF" stroke-width="1.5" stroke-linecap="round" stroke-linejoin="round"/>
</g>
<defs>
<clipPath id="clip0_16077_5245">
<rect width="20" height="20" fill="white" transform="matrix(1 0 0 -1 0 20)"/>
</clipPath>
</defs>
</svg>
