<svg width="20" height="20" viewBox="0 0 20 20" fill="none" xmlns="http://www.w3.org/2000/svg">
<g clip-path="url(#clip0_1589_5296)">
<path d="M9.99935 18.3332C14.6018 18.3332 18.3327 14.6023 18.3327 9.99984C18.3327 5.39734 14.6018 1.6665 9.99935 1.6665C5.39685 1.6665 1.66602 5.39734 1.66602 9.99984C1.66602 14.6023 5.39685 18.3332 9.99935 18.3332ZM9.99935 12.9165V7.9165V12.9165Z" fill="#06D6A0"/>
<path d="M9.99935 12.9165V7.9165M9.99935 18.3332C14.6018 18.3332 18.3327 14.6023 18.3327 9.99984C18.3327 5.39734 14.6018 1.6665 9.99935 1.6665C5.39685 1.6665 1.66602 5.39734 1.66602 9.99984C1.66602 14.6023 5.39685 18.3332 9.99935 18.3332Z" stroke="#F5F6FF" stroke-width="1.5" stroke-linecap="round" stroke-linejoin="round"/>
<path d="M7.5 9.5835L10 7.0835L12.5 9.5835" stroke="#F5F6FF" stroke-width="1.5" stroke-linecap="round" stroke-linejoin="round"/>
</g>
<defs>
<clipPath id="clip0_1589_5296">
<rect width="20" height="20" fill="white"/>
</clipPath>
</defs>
</svg>
