<svg width="30" height="29" viewBox="0 0 30 29" fill="none" xmlns="http://www.w3.org/2000/svg">
<path d="M10.1665 9.66699V7.25033C10.1665 4.58095 12.3305 2.41699 14.9998 2.41699L22.2498 2.41699C24.9192 2.41699 27.0832 4.58095 27.0832 7.25033V14.5003C27.0832 17.1697 24.9192 19.3337 22.2498 19.3337H19.8332M10.1665 9.66699H7.74984C5.08046 9.66699 2.9165 11.8309 2.9165 14.5003V21.7503C2.9165 24.4197 5.08046 26.5837 7.74984 26.5837H14.9998C17.6692 26.5837 19.8332 24.4197 19.8332 21.7503V19.3337M10.1665 9.66699H14.9998C17.6692 9.66699 19.8332 11.8309 19.8332 14.5003V19.3337" stroke="#5A6AE8" stroke-width="1.5" stroke-linejoin="round"/>
</svg>
