<svg width="19" height="18" viewBox="0 0 19 18" fill="none" xmlns="http://www.w3.org/2000/svg">
<path d="M10.2873 0.671975L12.2998 4.88166C12.3873 5.13424 12.6498 5.30263 12.9123 5.38682L17.4623 6.06037C18.2498 6.06037 18.5123 6.90231 17.9873 7.40747L14.6623 10.691C14.4873 10.8594 14.3998 11.1962 14.3998 11.4488L15.1873 15.9952C15.2748 16.6688 14.5748 17.2581 13.9623 16.9214L9.84983 14.7323C9.58733 14.5639 9.32483 14.5639 9.06233 14.7323L4.94983 16.9214C4.33733 17.2581 3.54983 16.753 3.72483 15.9952L4.51233 11.4488C4.59983 11.1962 4.42483 10.8594 4.24983 10.691L0.924826 7.40747C0.487326 6.90231 0.749826 6.06037 1.44983 5.97618L5.99983 5.30263C6.26233 5.30263 6.52483 5.05005 6.61233 4.79747L8.62483 0.587781C9.06233 -0.00157483 9.93733 -0.00157492 10.2873 0.671975Z" fill="#F6C100"/>
</svg>
