<svg width="20" height="20" viewBox="0 0 20 20" fill="none" xmlns="http://www.w3.org/2000/svg">
<path fill-rule="evenodd" clip-rule="evenodd" d="M3.14767 5.17854H2.14284C1.74836 5.17854 1.42856 4.85874 1.42856 4.46425C1.42856 4.06977 1.74836 3.74997 2.14284 3.74997H3.14767C3.44894 2.81737 4.32426 2.14282 5.35713 2.14282C6.39 2.14282 7.26534 2.81737 7.56663 3.74997H17.8571C18.2516 3.74997 18.5714 4.06977 18.5714 4.46425C18.5714 4.85874 18.2516 5.17854 17.8571 5.17854H7.56663C7.26534 6.11113 6.39 6.78568 5.35713 6.78568C4.32426 6.78568 3.44894 6.11113 3.14767 5.17854ZM4.10713 4.46425C4.10713 3.77389 4.66677 3.21425 5.35713 3.21425C6.04749 3.21425 6.60713 3.77389 6.60713 4.46425C6.60713 5.15461 6.04749 5.71425 5.35713 5.71425C4.66677 5.71425 4.10713 5.15461 4.10713 4.46425Z" fill="white"/>
<path fill-rule="evenodd" clip-rule="evenodd" d="M2.14284 10.8929H12.4613C12.7626 11.8255 13.6378 12.5 14.6708 12.5C15.7036 12.5 16.5789 11.8255 16.8802 10.8929H17.8571C18.2516 10.8929 18.5714 10.5731 18.5714 10.1786C18.5714 9.78411 18.2516 9.46432 17.8571 9.46432H16.8802C16.5789 8.53175 15.7036 7.85718 14.6708 7.85718C13.6378 7.85718 12.7626 8.53175 12.4613 9.46432H2.14284C1.74836 9.46432 1.42856 9.78411 1.42856 10.1786C1.42856 10.5731 1.74836 10.8929 2.14284 10.8929ZM14.6708 8.92861C13.9804 8.92861 13.4208 9.48825 13.4208 10.1786C13.4208 10.869 13.9804 11.4286 14.6708 11.4286C15.3611 11.4286 15.9208 10.869 15.9208 10.1786C15.9208 9.48825 15.3611 8.92861 14.6708 8.92861Z" fill="white"/>
<path fill-rule="evenodd" clip-rule="evenodd" d="M7.43334 16.6071H2.14284C1.74836 16.6071 1.42856 16.2873 1.42856 15.8928C1.42856 15.4983 1.74836 15.1786 2.14284 15.1786H7.43334C7.73463 14.246 8.60999 13.5714 9.64284 13.5714C10.6757 13.5714 11.5511 14.246 11.8523 15.1786H17.8571C18.2516 15.1786 18.5714 15.4983 18.5714 15.8928C18.5714 16.2873 18.2516 16.6071 17.8571 16.6071H11.8523C11.5511 17.5397 10.6757 18.2143 9.64284 18.2143C8.60999 18.2143 7.73463 17.5397 7.43334 16.6071ZM8.39284 15.8928C8.39284 15.2025 8.95249 14.6428 9.64284 14.6428C10.3332 14.6428 10.8928 15.2025 10.8928 15.8928C10.8928 16.5832 10.3332 17.1428 9.64284 17.1428C8.95249 17.1428 8.39284 16.5832 8.39284 15.8928Z" fill="white"/>
</svg>
