<svg width="18" height="18" viewBox="0 0 18 18" fill="none" xmlns="http://www.w3.org/2000/svg">
<path d="M9.36869 10.6287C7.84892 10.6287 6.60742 9.39432 6.60742 7.86741C6.60742 6.34051 7.84892 5.11328 9.36869 5.11328C10.8885 5.11328 12.13 6.34765 12.13 7.87455C12.13 9.40145 10.8885 10.6287 9.36869 10.6287ZM9.36869 6.18354C8.44113 6.18354 7.67768 6.93986 7.67768 7.87455C7.67768 8.80924 8.434 9.56556 9.36869 9.56556C10.3034 9.56556 11.0597 8.80924 11.0597 7.87455C11.0597 6.93986 10.2962 6.18354 9.36869 6.18354Z" fill="#BDC1DF"/>
<path d="M9.36802 16.7577C8.31203 16.7577 7.24891 16.3581 6.42124 15.5661C4.3164 13.5398 1.99037 10.3076 2.86798 6.46178C3.65998 2.97273 6.70665 1.41016 9.36802 1.41016C9.36802 1.41016 9.36802 1.41016 9.37516 1.41016C12.0365 1.41016 15.0832 2.97273 15.8752 6.46891C16.7457 10.3147 14.4196 13.5398 12.3148 15.5661C11.4871 16.3581 10.424 16.7577 9.36802 16.7577ZM9.36802 2.48041C7.29172 2.48041 4.62321 3.58635 3.91684 6.69723C3.14625 10.0578 5.25823 12.9547 7.17042 14.7884C8.40479 15.9799 10.3384 15.9799 11.5728 14.7884C13.4778 12.9547 15.5898 10.0578 14.8335 6.69723C14.12 3.58635 11.4443 2.48041 9.36802 2.48041Z" fill="#BDC1DF"/>
</svg>
