<svg width="24" height="25" viewBox="0 0 24 25" fill="none" xmlns="http://www.w3.org/2000/svg">
<path d="M15.24 23.02H15.11C10.67 23.02 8.53002 21.27 8.16002 17.35C8.12002 16.94 8.42002 16.57 8.84002 16.53C9.25002 16.49 9.62002 16.8 9.66002 17.21C9.95002 20.35 11.43 21.52 15.12 21.52H15.25C19.32 21.52 20.76 20.08 20.76 16.01V9.48998C20.76 5.41998 19.32 3.97998 15.25 3.97998H15.12C11.41 3.97998 9.93002 5.16998 9.66002 8.36998C9.61002 8.77998 9.27002 9.08998 8.84002 9.04998C8.42002 9.01998 8.12001 8.64998 8.15001 8.23998C8.49001 4.25998 10.64 2.47998 15.11 2.47998H15.24C20.15 2.47998 22.25 4.57998 22.25 9.48998V16.01C22.25 20.92 20.15 23.02 15.24 23.02Z" fill="white"/>
<path d="M14.88 13.5H2C1.59 13.5 1.25 13.16 1.25 12.75C1.25 12.34 1.59 12 2 12H14.88C15.29 12 15.63 12.34 15.63 12.75C15.63 13.16 15.3 13.5 14.88 13.5Z" fill="white"/>
<path d="M12.65 16.8498C12.46 16.8498 12.27 16.7798 12.12 16.6298C11.83 16.3398 11.83 15.8598 12.12 15.5698L14.94 12.7498L12.12 9.92984C11.83 9.63984 11.83 9.15984 12.12 8.86984C12.41 8.57984 12.89 8.57984 13.18 8.86984L16.53 12.2198C16.82 12.5098 16.82 12.9898 16.53 13.2798L13.18 16.6298C13.03 16.7798 12.84 16.8498 12.65 16.8498Z" fill="white"/>
</svg>
