<svg width="20" height="20" viewBox="0 0 20 20" fill="none" xmlns="http://www.w3.org/2000/svg">
<g clip-path="url(#clip0_13236_5529)">
<path d="M17.5035 10.2831L15.32 12.3875C15.0202 12.676 14.8165 13.253 14.8787 13.6659L15.2182 16.1323C15.4388 17.7106 14.4601 18.3951 13.0459 17.6597L10.6474 16.4038C10.2458 16.1945 9.58957 16.2058 9.19925 16.4378L7.10055 17.6653C5.44309 18.6326 4.45314 17.9029 4.89437 16.0361L5.51097 13.4283C5.62411 12.9531 5.41481 12.3026 5.05842 11.9802L3.07286 10.1869C1.65299 8.90283 2.04897 7.73752 3.96099 7.59044L6.38213 7.40942C6.83468 7.37548 7.38339 7.0191 7.5927 6.61746L8.84852 4.20764C9.58957 2.79908 10.7832 2.80473 11.5016 4.22461L12.6216 6.4421C12.814 6.81545 13.3005 7.17749 13.7134 7.23972L16.7116 7.72621C18.3294 7.99774 18.6858 9.14608 17.5035 10.2831Z" fill="#FFB301"/>
</g>
<defs>
<clipPath id="clip0_13236_5529">
<rect width="19.2" height="19.2" fill="white" transform="translate(0.581055 0.675781)"/>
</clipPath>
</defs>
</svg>
