<svg width="20" height="22" viewBox="0 0 20 22" fill="none" xmlns="http://www.w3.org/2000/svg">
<path d="M9.89736 5.19V8.52M9.91736 0.75C6.23736 0.75 3.25736 3.73 3.25736 7.41V9.51C3.25736 10.19 2.97736 11.21 2.62736 11.79L1.35736 13.91C0.577359 15.22 1.11736 16.68 2.55736 17.16C7.33864 18.75 12.5061 18.75 17.2874 17.16C17.6029 17.0548 17.8907 16.88 18.1295 16.6486C18.3684 16.4171 18.5522 16.135 18.6674 15.823C18.7826 15.511 18.8263 15.1771 18.7951 14.846C18.7639 14.5149 18.6588 14.195 18.4874 13.91L17.2174 11.79C16.8674 11.21 16.5874 10.18 16.5874 9.51V7.41C16.5774 3.75 13.5774 0.75 9.91736 0.75Z" stroke="#BDC1DF" stroke-width="1.5" stroke-miterlimit="10" stroke-linecap="round"/>
<path d="M13.2274 17.5698C13.2274 19.3998 11.7274 20.8998 9.89738 20.8998C8.98738 20.8998 8.14738 20.5198 7.54738 19.9198C6.94738 19.3198 6.56738 18.4798 6.56738 17.5698" stroke="#BDC1DF" stroke-width="1.5" stroke-miterlimit="10"/>
</svg>
