<svg width="24" height="24" viewBox="0 0 24 24" fill="none" xmlns="http://www.w3.org/2000/svg">
<path d="M20.6196 13.0699C20.2396 13.0699 19.9196 12.7799 19.8696 12.3999C19.6296 10.1399 18.4096 8.08986 16.5296 6.78986C16.1896 6.54986 16.1096 6.08986 16.3396 5.74986C16.5796 5.40986 17.0496 5.32986 17.3796 5.55986C19.6196 7.10986 21.0596 9.54986 21.3496 12.2399C21.3896 12.6499 21.0996 13.0199 20.6796 13.0699C20.6696 13.0699 20.6396 13.0699 20.6196 13.0699Z" fill="#5A6AE8"/>
<path d="M3.48991 13.1198C3.45991 13.1198 3.43991 13.1198 3.40991 13.1198C2.99991 13.0698 2.69991 12.6998 2.73991 12.2898C3.00991 9.59977 4.43991 7.16977 6.64991 5.59977C6.98991 5.35977 7.45991 5.43977 7.69991 5.77977C7.93991 6.11977 7.85991 6.58977 7.51991 6.82977C5.65991 8.13977 4.45991 10.1898 4.22991 12.4498C4.19991 12.8298 3.86991 13.1198 3.48991 13.1198Z" fill="#5A6AE8"/>
<path d="M12.06 22.61C10.58 22.61 9.16997 22.27 7.84997 21.61C7.47997 21.42 7.32997 20.97 7.51997 20.6C7.70997 20.23 8.15997 20.08 8.52997 20.27C10.69 21.36 13.29 21.38 15.47 20.33C15.84 20.15 16.29 20.31 16.47 20.68C16.65 21.05 16.49 21.5 16.12 21.68C14.84 22.3 13.48 22.61 12.06 22.61Z" fill="#5A6AE8"/>
<path d="M12.0603 8.43988C10.1103 8.43988 8.53027 6.85988 8.53027 4.90988C8.53027 2.95988 10.1103 1.37988 12.0603 1.37988C14.0103 1.37988 15.5903 2.95988 15.5903 4.90988C15.5903 6.85988 14.0003 8.43988 12.0603 8.43988ZM12.0603 2.88988C10.9403 2.88988 10.0303 3.79988 10.0303 4.91988C10.0303 6.03988 10.9403 6.94988 12.0603 6.94988C13.1803 6.94988 14.0903 6.03988 14.0903 4.91988C14.0903 3.79988 13.1703 2.88988 12.0603 2.88988Z" fill="#5A6AE8"/>
<path d="M4.8298 20.6699C2.8798 20.6699 1.2998 19.0899 1.2998 17.1399C1.2998 15.1999 2.8798 13.6099 4.8298 13.6099C6.7798 13.6099 8.3598 15.1899 8.3598 17.1399C8.3598 19.0799 6.7798 20.6699 4.8298 20.6699ZM4.8298 15.1099C3.7098 15.1099 2.7998 16.0199 2.7998 17.1399C2.7998 18.2599 3.7098 19.1699 4.8298 19.1699C5.9498 19.1699 6.85981 18.2599 6.85981 17.1399C6.85981 16.0199 5.9498 15.1099 4.8298 15.1099Z" fill="#5A6AE8"/>
<path d="M19.1696 20.6699C17.2196 20.6699 15.6396 19.0899 15.6396 17.1399C15.6396 15.1999 17.2196 13.6099 19.1696 13.6099C21.1196 13.6099 22.6996 15.1899 22.6996 17.1399C22.6896 19.0799 21.1096 20.6699 19.1696 20.6699ZM19.1696 15.1099C18.0496 15.1099 17.1396 16.0199 17.1396 17.1399C17.1396 18.2599 18.0496 19.1699 19.1696 19.1699C20.2896 19.1699 21.1996 18.2599 21.1996 17.1399C21.1896 16.0199 20.2896 15.1099 19.1696 15.1099Z" fill="#5A6AE8"/>
</svg>
