<svg width="18" height="18" viewBox="0 0 18 18" fill="none" xmlns="http://www.w3.org/2000/svg">
<path d="M12.935 15.8751H5.79992C3.19563 15.8751 1.69727 14.3768 1.69727 11.7725V6.77795C1.69727 4.17365 3.19563 2.67529 5.79992 2.67529H12.935C15.5393 2.67529 17.0376 4.17365 17.0376 6.77795V11.7725C17.0376 14.3768 15.5393 15.8751 12.935 15.8751ZM5.79992 3.74555C3.7593 3.74555 2.76752 4.73732 2.76752 6.77795V11.7725C2.76752 13.8131 3.7593 14.8049 5.79992 14.8049H12.935C14.9756 14.8049 15.9674 13.8131 15.9674 11.7725V6.77795C15.9674 4.73732 14.9756 3.74555 12.935 3.74555H5.79992Z" fill="#BDC1DF"/>
<path d="M9.36826 9.89577C8.76892 9.89577 8.16244 9.71026 7.69866 9.3321L5.46538 7.54834C5.23706 7.36283 5.19426 7.02748 5.37977 6.79915C5.56528 6.57083 5.90063 6.52803 6.12895 6.71354L8.36222 8.4973C8.90448 8.93254 9.8249 8.93254 10.3672 8.4973L12.6004 6.71354C12.8288 6.52803 13.1712 6.5637 13.3496 6.79915C13.5351 7.02748 13.4995 7.36996 13.264 7.54834L11.0307 9.3321C10.5741 9.71026 9.96761 9.89577 9.36826 9.89577Z" fill="#BDC1DF"/>
</svg>
