<svg width="18" height="22" viewBox="0 0 18 22" fill="none" xmlns="http://www.w3.org/2000/svg">
<path d="M4.11951 0.807617C3.14457 0.807617 2.34052 1.61711 2.34052 2.59205V5.23568C2.34052 5.95191 1.94633 6.49792 1.41665 7.38027C0.886969 8.26261 0.300781 9.44792 0.300781 11.1861V19.4533C0.303462 19.9243 0.491751 20.3752 0.824797 20.7083C1.15784 21.0413 1.60878 21.2296 2.07977 21.2323H16.2177C17.1926 21.2323 18.0008 20.4275 18.0008 19.4533V11.1861C18.0008 9.44792 17.4098 8.26261 16.8801 7.38027C16.3505 6.49792 15.9563 5.95122 15.9563 5.23568V2.59205C15.9563 1.61711 15.1515 0.807617 14.1773 0.807617H4.11951ZM4.11951 2.16926H14.1759C14.4203 2.16926 14.5933 2.34764 14.5933 2.59205V5.23568C14.5933 6.43597 15.223 7.26657 15.7139 8.0856C16.1455 8.80455 16.5302 9.53643 16.618 10.6836H1.67672C1.76455 9.53575 2.15057 8.80387 2.58221 8.0856C3.07377 7.26725 3.70285 6.43597 3.70285 5.23568V2.59205C3.70353 2.34764 3.87509 2.16926 4.11951 2.16926ZM7.33639 3.5309C6.15789 3.5309 5.19044 4.5038 5.19044 5.6823C5.19044 6.8608 6.15789 7.82825 7.33639 7.82825H10.9597C12.1382 7.82825 13.1111 6.8608 13.1111 5.6823C13.1111 4.5038 12.1382 3.5309 10.9597 3.5309H7.33639ZM7.33639 4.89391H10.9597C11.4077 4.89391 11.7495 5.23432 11.7495 5.6823C11.7495 6.13028 11.4077 6.46661 10.9597 6.46661H7.33639C6.88841 6.46661 6.55209 6.13028 6.55209 5.6823C6.55209 5.23432 6.88773 4.89391 7.33639 4.89391ZM1.65698 12.0453H16.6391V19.4533C16.6391 19.6977 16.4621 19.8706 16.2177 19.8706H2.07977C1.83535 19.8706 1.65698 19.6977 1.65698 19.4533V12.0453ZM4.25499 13.7882C4.16559 13.7878 4.07698 13.8051 3.99425 13.8389C3.91151 13.8728 3.83625 13.9227 3.77278 13.9856C3.70931 14.0486 3.65886 14.1235 3.62431 14.2059C3.58977 14.2884 3.57181 14.3769 3.57145 14.4663V14.4676C3.57109 14.557 3.58835 14.6456 3.62223 14.7284C3.65611 14.8111 3.70596 14.8864 3.76893 14.9498C3.8319 15.0133 3.90675 15.0638 3.98921 15.0983C4.07168 15.1328 4.16014 15.1508 4.24955 15.1512H5.99994C6.08935 15.1515 6.17795 15.1343 6.26069 15.1004C6.34342 15.0665 6.41868 15.0167 6.48215 14.9537C6.54562 14.8907 6.59607 14.8159 6.63062 14.7334C6.66516 14.6509 6.68313 14.5625 6.68348 14.4731V14.4676C6.68331 14.3782 6.66552 14.2897 6.63114 14.2072C6.59676 14.1247 6.54646 14.0497 6.48311 13.9866C6.41977 13.9235 6.34461 13.8735 6.26194 13.8395C6.17927 13.8054 6.09071 13.788 6.0013 13.7882H5.99994H4.25499ZM4.25499 16.553C4.07443 16.5523 3.90097 16.6233 3.77278 16.7505C3.64459 16.8776 3.57217 17.0505 3.57145 17.2311C3.57073 17.4116 3.64176 17.5851 3.76893 17.7133C3.8961 17.8415 4.06898 17.9139 4.24955 17.9146H8.51285C8.69342 17.9146 8.86659 17.8429 8.99426 17.7152C9.12194 17.5875 9.19367 17.4144 9.19367 17.2338C9.19367 17.0532 9.12194 16.8801 8.99426 16.7524C8.86659 16.6247 8.69342 16.553 8.51285 16.553H4.25499Z" fill="#BDC1DF"/>
</svg>
