<svg width="24" height="20" viewBox="0 0 24 20" fill="none" xmlns="http://www.w3.org/2000/svg">
<path d="M12.9988 12.2407H11.9988C11.5888 12.2407 11.2488 11.9637 11.2488 11.6296C11.2488 11.2955 11.5888 11.0185 11.9988 11.0185H12.9988C13.6888 11.0185 14.2488 10.5622 14.2488 9.99998V2.46294H5.9988C4.8188 2.46294 3.73877 2.98441 3.15877 3.82367C2.95877 4.117 2.49882 4.22296 2.13882 4.06C1.77882 3.89704 1.64878 3.52221 1.84878 3.22887C2.68878 2.00665 4.2788 1.24072 5.9988 1.24072H14.9988C15.4088 1.24072 15.7488 1.51776 15.7488 1.85183V9.99998C15.7488 11.2385 14.5188 12.2407 12.9988 12.2407Z" fill="#BDC1DF"/>
<path d="M19.0029 17.1295H18.0029C17.5929 17.1295 17.2529 16.8525 17.2529 16.5184C17.2529 15.9562 16.6929 15.4999 16.0029 15.4999C15.3129 15.4999 14.7529 15.9562 14.7529 16.5184C14.7529 16.8525 14.4129 17.1295 14.0029 17.1295H10.0029C9.59293 17.1295 9.25293 16.8525 9.25293 16.5184C9.25293 15.9562 8.69293 15.4999 8.00293 15.4999C7.31293 15.4999 6.75293 15.9562 6.75293 16.5184C6.75293 16.8525 6.41293 17.1295 6.00293 17.1295H5.00293C2.93293 17.1295 1.25293 15.7606 1.25293 14.0739C1.25293 13.7399 1.59293 13.4628 2.00293 13.4628C2.41293 13.4628 2.75293 13.7399 2.75293 14.0739C2.75293 15.0843 3.76293 15.9073 5.00293 15.9073H5.3529C5.6829 14.9702 6.74293 14.2777 8.00293 14.2777C9.26293 14.2777 10.323 14.9702 10.653 15.9073H13.3629C13.6929 14.9702 14.7529 14.2777 16.0129 14.2777C17.2729 14.2777 18.3329 14.9702 18.6629 15.9073H19.0029C20.2429 15.9073 21.2529 15.0843 21.2529 14.0739V12.2406H19.0029C18.0429 12.2406 17.2529 11.5969 17.2529 10.8147V8.37024C17.2529 7.58802 18.0329 6.94432 19.0029 6.94432L17.9329 5.42062C17.7129 5.10284 17.293 4.90728 16.843 4.90728H15.7529V9.99987C15.7529 11.2384 14.5229 12.2406 13.0029 12.2406H12.0029C11.5929 12.2406 11.2529 11.9636 11.2529 11.6295C11.2529 11.2954 11.5929 11.0184 12.0029 11.0184H13.0029C13.6929 11.0184 14.2529 10.5621 14.2529 9.99987V4.29617C14.2529 3.9621 14.5929 3.68506 15.0029 3.68506H16.843C17.833 3.68506 18.7429 4.11692 19.2329 4.81766L20.9429 7.25395C21.0729 7.44136 21.0729 7.67766 20.9429 7.86506C20.8129 8.05247 20.5629 8.16654 20.2929 8.16654H19.0029C18.8629 8.16654 18.7529 8.25617 18.7529 8.37024V10.8147C18.7529 10.9288 18.8629 11.0184 19.0029 11.0184H22.0029C22.4129 11.0184 22.7529 11.2954 22.7529 11.6295V14.0739C22.7529 15.7606 21.0729 17.1295 19.0029 17.1295Z" fill="#BDC1DF"/>
<path d="M8 18.7593C6.48 18.7593 5.25 17.7571 5.25 16.5186C5.25 15.2801 6.48 14.2778 8 14.2778C9.52 14.2778 10.75 15.2801 10.75 16.5186C10.75 17.7571 9.52 18.7593 8 18.7593ZM8 15.5001C7.31 15.5001 6.75 15.9564 6.75 16.5186C6.75 17.0808 7.31 17.5371 8 17.5371C8.69 17.5371 9.25 17.0808 9.25 16.5186C9.25 15.9564 8.69 15.5001 8 15.5001Z" fill="#BDC1DF"/>
<path d="M16.0029 18.7593C14.4829 18.7593 13.2529 17.7571 13.2529 16.5186C13.2529 15.2801 14.4829 14.2778 16.0029 14.2778C17.5229 14.2778 18.7529 15.2801 18.7529 16.5186C18.7529 17.7571 17.5229 18.7593 16.0029 18.7593ZM16.0029 15.5001C15.3129 15.5001 14.7529 15.9564 14.7529 16.5186C14.7529 17.0808 15.3129 17.5371 16.0029 17.5371C16.6929 17.5371 17.2529 17.0808 17.2529 16.5186C17.2529 15.9564 16.6929 15.5001 16.0029 15.5001Z" fill="#BDC1DF"/>
<path d="M22 12.2406H19C18.04 12.2406 17.25 11.5969 17.25 10.8147V8.37026C17.25 7.58804 18.04 6.94434 19 6.94434H20.29C20.56 6.94434 20.81 7.05841 20.94 7.25397L22.65 9.69841C22.71 9.78804 22.75 9.89397 22.75 9.99989V11.6295C22.75 11.9636 22.41 12.2406 22 12.2406ZM19 8.16656C18.86 8.16656 18.75 8.25619 18.75 8.37026V10.8147C18.75 10.9288 18.86 11.0184 19 11.0184H21.25V10.1629L19.85 8.16656H19Z" fill="#BDC1DF"/>
<path d="M8.00293 7.35162H2.00293C1.59293 7.35162 1.25293 7.07458 1.25293 6.74051C1.25293 6.40643 1.59293 6.12939 2.00293 6.12939H8.00293C8.41293 6.12939 8.75293 6.40643 8.75293 6.74051C8.75293 7.07458 8.41293 7.35162 8.00293 7.35162Z" fill="#BDC1DF"/>
<path d="M6.00293 9.79644H2.00293C1.59293 9.79644 1.25293 9.5194 1.25293 9.18533C1.25293 8.85126 1.59293 8.57422 2.00293 8.57422H6.00293C6.41293 8.57422 6.75293 8.85126 6.75293 9.18533C6.75293 9.5194 6.41293 9.79644 6.00293 9.79644Z" fill="#BDC1DF"/>
<path d="M4.00293 12.2408H2.00293C1.59293 12.2408 1.25293 11.9637 1.25293 11.6297C1.25293 11.2956 1.59293 11.0186 2.00293 11.0186H4.00293C4.41293 11.0186 4.75293 11.2956 4.75293 11.6297C4.75293 11.9637 4.41293 12.2408 4.00293 12.2408Z" fill="#BDC1DF"/>
</svg>
