<svg width="32" height="32" viewBox="0 0 32 32" fill="none" xmlns="http://www.w3.org/2000/svg">
<path d="M9.99977 10.2265V8.93315C9.99977 5.93315 12.4131 2.98649 15.4131 2.70649C16.2467 2.62459 17.0881 2.71812 17.8834 2.98107C18.6786 3.24401 19.41 3.67055 20.0304 4.23321C20.6509 4.79588 21.1466 5.48221 21.4858 6.24805C21.825 7.01388 22.0001 7.84224 21.9998 8.67982V10.5198M11.9998 29.3332H19.9998C25.3598 29.3332 26.3198 27.1865 26.5998 24.5732L27.5998 16.5732C27.9598 13.3198 27.0264 10.6665 21.3331 10.6665H10.6664C4.9731 10.6665 4.03977 13.3198 4.39977 16.5732L5.39977 24.5732C5.67977 27.1865 6.63977 29.3332 11.9998 29.3332Z" stroke="#171717" stroke-width="1.5" stroke-miterlimit="10" stroke-linecap="round" stroke-linejoin="round"/>
<path d="M20.6615 16H20.6748M11.3281 16H11.3388" stroke="#171717" stroke-width="1.5" stroke-linecap="round" stroke-linejoin="round"/>
</svg>
