<svg width="32" height="32" viewBox="0 0 32 32" fill="none" xmlns="http://www.w3.org/2000/svg">
<path d="M19.5012 28.6722H12.3927C5.95954 28.6722 3.21094 25.9236 3.21094 19.4904V12.382C3.21094 5.9488 5.95954 3.2002 12.3927 3.2002H19.5012C25.9343 3.2002 28.6829 5.9488 28.6829 12.382V19.4904C28.6829 25.9236 25.9343 28.6722 19.5012 28.6722ZM12.3927 4.97731C6.93103 4.97731 4.98805 6.92029 4.98805 12.382V19.4904C4.98805 24.9521 6.93103 26.8951 12.3927 26.8951H19.5012C24.9628 26.8951 26.9058 24.9521 26.9058 19.4904V12.382C26.9058 6.92029 24.9628 4.97731 19.5012 4.97731H12.3927Z" fill="#292D32"/>
<path d="M18.0322 22.7485H13.8501C12.5468 22.7485 11.5161 22.1088 10.9356 20.9477L9.88118 18.827C9.63238 18.3176 9.12294 18.0095 8.55426 18.0095H4.08778C3.60203 18.0095 3.19922 17.6067 3.19922 17.121C3.19922 16.6352 3.61388 16.2324 4.09962 16.2324H8.55426C9.79824 16.2324 10.9119 16.9196 11.4687 18.0332L12.5232 20.1539C12.7956 20.6989 13.234 20.9714 13.8501 20.9714H18.0322C18.6009 20.9714 19.1103 20.6634 19.3591 20.1539L20.4136 18.0332C20.9704 16.9196 22.084 16.2324 23.328 16.2324H27.759C28.2447 16.2324 28.6475 16.6352 28.6475 17.121C28.6475 17.6067 28.2447 18.0095 27.759 18.0095H23.328C22.7593 18.0095 22.2499 18.3176 22.0011 18.827L20.9467 20.9477C20.3899 22.0614 19.2762 22.7485 18.0322 22.7485Z" fill="#292D32"/>
<path d="M17.9257 10.9011H13.9805C13.4829 10.9011 13.0801 10.4983 13.0801 10.0126C13.0801 9.52684 13.4829 9.12402 13.9686 9.12402H17.9138C18.3996 9.12402 18.8024 9.52684 18.8024 10.0126C18.8024 10.4983 18.4114 10.9011 17.9257 10.9011Z" fill="#292D32"/>
<path d="M18.908 14.4553H12.9843C12.4985 14.4553 12.0957 14.0525 12.0957 13.5668C12.0957 13.081 12.4985 12.6782 12.9843 12.6782H18.908C19.3937 12.6782 19.7965 13.081 19.7965 13.5668C19.7965 14.0525 19.3937 14.4553 18.908 14.4553Z" fill="#292D32"/>
</svg>
