<svg width="32" height="30" viewBox="0 0 32 30" fill="none" xmlns="http://www.w3.org/2000/svg">
<path d="M24.8125 0.755859H7.1875C3.22431 0.755859 0 3.98017 0 7.94336V14.8184C0 18.464 2.728 21.4843 6.25 21.945V28.3075C6.24998 28.4306 6.27422 28.5526 6.32131 28.6663C6.36841 28.78 6.43745 28.8834 6.52448 28.9704C6.61152 29.0575 6.71486 29.1265 6.82859 29.1737C6.94231 29.2208 7.06421 29.245 7.18731 29.245C7.43125 29.245 7.67106 29.1498 7.85038 28.9704L14.815 22.0059H24.8125C28.7757 22.0059 32 18.7815 32 14.8184V7.94336C32 3.98017 28.7757 0.755859 24.8125 0.755859ZM30.125 14.8184C30.125 17.7477 27.7418 20.1309 24.8125 20.1309H14.4267C14.178 20.1309 13.9396 20.2296 13.7638 20.4054L8.125 26.0442V21.0684C8.125 20.5506 7.70525 20.1309 7.1875 20.1309C4.25819 20.1309 1.875 17.7477 1.875 14.8184V7.94336C1.875 5.01405 4.25819 2.63086 7.1875 2.63086H24.8125C27.7418 2.63086 30.125 5.01405 30.125 7.94336V14.8184Z" fill="#171717"/>
<path d="M11.4178 8.74082C11.7928 8.74082 12.0053 8.34082 12.0053 7.87832C12.0053 7.47832 11.8303 7.04082 11.4178 7.04082H7.08047C6.65541 7.04082 6.23047 7.24082 6.23047 7.64082V15.5782C6.23047 15.9782 6.71791 16.1782 7.20547 16.1782C7.69291 16.1782 8.18047 15.9782 8.18047 15.5782V12.3532H10.0679C10.4804 12.3532 10.6554 11.9532 10.6554 11.6157C10.6554 11.2157 10.4429 10.8532 10.0679 10.8532H8.18047V8.74076H11.4178V8.74082ZM16.618 7.61582C16.4806 7.17832 15.9181 6.96582 15.343 6.96582C14.7681 6.96582 14.2056 7.17832 14.0682 7.61582L11.7432 15.2407C11.7307 15.2907 11.7182 15.3407 11.7182 15.3782C11.7182 15.8407 12.4307 16.1782 12.9682 16.1782C13.2807 16.1782 13.5307 16.0782 13.6057 15.8157L14.0307 14.2532H16.6682L17.0931 15.8157C17.1682 16.0782 17.4182 16.1782 17.7305 16.1782C18.2682 16.1782 18.9805 15.8407 18.9805 15.3782C18.9805 15.3407 18.9681 15.2907 18.9557 15.2407L16.618 7.61582ZM14.4305 12.7532L15.343 9.40326L16.2555 12.7532H14.4305ZM23.2928 7.04082C21.5678 7.04082 20.2305 7.82832 20.2305 9.99076V13.3032C20.2305 15.2032 21.268 16.0406 22.6928 16.2157V16.9407C22.6928 17.3407 22.9929 17.5407 23.2928 17.5407C23.5929 17.5407 23.8928 17.3407 23.8928 16.9407V16.2157C25.3179 16.0407 26.3678 15.2032 26.3678 13.3032V9.99076C26.3678 7.82832 25.0178 7.04082 23.2928 7.04082ZM24.4178 13.3032C24.4178 13.8782 24.2179 14.2407 23.8928 14.4282V13.8782C23.8928 13.4657 23.5929 13.2907 23.2928 13.2907C22.9929 13.2907 22.6928 13.4657 22.6928 13.8782V14.4282C22.3553 14.2407 22.1804 13.8782 22.1804 13.3032V9.99076C22.1804 9.14076 22.5929 8.74082 23.2928 8.74082C23.9929 8.74082 24.4178 9.14082 24.4178 9.99076V13.3032Z" fill="#171717"/>
</svg>
