<svg width="32" height="32" viewBox="0 0 32 32" fill="none" xmlns="http://www.w3.org/2000/svg">
<path d="M16.3333 28.7333C15.92 28.7333 15.52 28.68 15.1867 28.56C10.0933 26.8133 2 20.6133 2 11.4533C2 6.78667 5.77333 3 10.4133 3C12.6667 3 14.7733 3.88 16.3333 5.45333C17.8933 3.88 20 3 22.2533 3C26.8933 3 30.6667 6.8 30.6667 11.4533C30.6667 20.6267 22.5733 26.8133 17.48 28.56C17.1467 28.68 16.7467 28.7333 16.3333 28.7333ZM10.4133 5C6.88 5 4 7.89333 4 11.4533C4 20.56 12.76 25.6267 15.84 26.68C16.08 26.76 16.6 26.76 16.84 26.68C19.9067 25.6267 28.68 20.5733 28.68 11.4533C28.68 7.89333 25.8 5 22.2667 5C20.24 5 18.36 5.94667 17.1467 7.58667C16.7733 8.09333 15.92 8.09333 15.5467 7.58667C14.3067 5.93333 12.44 5 10.4133 5Z" fill="#171717"/>
</svg>
