<svg width="32" height="32" viewBox="0 0 32 32" fill="none" xmlns="http://www.w3.org/2000/svg">
<path d="M20.3194 29.6933H20.146C14.226 29.6933 11.3727 27.36 10.8794 22.1333C10.826 21.5866 11.226 21.0933 11.786 21.04C12.3194 20.9866 12.826 21.4 12.8794 21.9466C13.266 26.1333 15.2394 27.6933 20.1594 27.6933H20.3327C25.7594 27.6933 27.6794 25.7733 27.6794 20.3466V11.6533C27.6794 6.22664 25.7594 4.30664 20.3327 4.30664H20.1594C15.2127 4.30664 13.2394 5.89331 12.8794 10.16C12.8127 10.7066 12.346 11.12 11.786 11.0666C11.226 11.0266 10.826 10.5333 10.866 9.98664C11.3194 4.67997 14.186 2.30664 20.146 2.30664H20.3194C26.866 2.30664 29.666 5.10664 29.666 11.6533V20.3466C29.666 26.8933 26.866 29.6933 20.3194 29.6933Z" fill="#FF445B"/>
<path d="M20.0015 17H4.82812C4.28146 17 3.82812 16.5467 3.82812 16C3.82812 15.4533 4.28146 15 4.82812 15H20.0015C20.5481 15 21.0015 15.4533 21.0015 16C21.0015 16.5467 20.5481 17 20.0015 17Z" fill="#FF445B"/>
<path d="M7.79927 21.4671C7.54594 21.4671 7.2926 21.3738 7.0926 21.1738L2.62594 16.7071C2.23927 16.3204 2.23927 15.6804 2.62594 15.2938L7.0926 10.8271C7.47927 10.4404 8.11927 10.4404 8.50594 10.8271C8.8926 11.2138 8.8926 11.8538 8.50594 12.2404L4.74594 16.0004L8.50594 19.7604C8.8926 20.1471 8.8926 20.7871 8.50594 21.1738C8.31927 21.3738 8.0526 21.4671 7.79927 21.4671Z" fill="#FF445B"/>
</svg>
