<svg width="32" height="32" viewBox="0 0 32 32" fill="none" xmlns="http://www.w3.org/2000/svg">
<path d="M15.8631 8.5865V13.0265M15.8898 2.6665C10.9831 2.6665 7.00981 6.63984 7.00981 11.5465V14.3465C7.00981 15.2532 6.63648 16.6132 6.16981 17.3865L4.47648 20.2132C3.43648 21.9598 4.15648 23.9065 6.07648 24.5465C12.4515 26.6665 19.3414 26.6665 25.7165 24.5465C26.1371 24.4062 26.5209 24.1731 26.8394 23.8646C27.1579 23.556 27.403 23.1799 27.5566 22.7639C27.7102 22.3479 27.7684 21.9027 27.7268 21.4612C27.6852 21.0197 27.545 20.5932 27.3165 20.2132L25.6231 17.3865C25.1565 16.6132 24.7831 15.2398 24.7831 14.3465V11.5465C24.7698 6.6665 20.7698 2.6665 15.8898 2.6665Z" stroke="#171717" stroke-width="1.5" stroke-miterlimit="10" stroke-linecap="round"/>
<path d="M20.3038 25.0933C20.3038 27.5333 18.3038 29.5333 15.8638 29.5333C14.6505 29.5333 13.5305 29.0266 12.7305 28.2266C11.9305 27.4266 11.4238 26.3066 11.4238 25.0933" stroke="#171717" stroke-width="1.5" stroke-miterlimit="10"/>
</svg>
