<svg width="32" height="32" viewBox="0 0 32 32" fill="none" xmlns="http://www.w3.org/2000/svg">
<path d="M16 30.143C15.6032 30.1426 15.213 30.0407 14.8667 29.847L10.3733 27.351C8.13939 26.109 6.27793 24.2926 4.98158 22.0897C3.68524 19.8869 3.00111 17.3776 3 14.8216V7.89363C2.99994 7.31713 3.21366 6.76109 3.59984 6.33304C3.98601 5.905 4.5172 5.63537 5.09067 5.5763C6.87844 5.3868 8.63793 4.98899 10.3333 4.39096C11.8878 3.84148 13.3789 3.12719 14.7813 2.2603C15.1482 2.0358 15.5699 1.91699 16 1.91699C16.4301 1.91699 16.8518 2.0358 17.2187 2.2603C18.6212 3.12695 20.1123 3.84123 21.6667 4.39096C23.3621 4.98899 25.1216 5.3868 26.9093 5.5763C27.4828 5.63537 28.014 5.905 28.4002 6.33304C28.7863 6.76109 29.0001 7.31713 29 7.89363V14.8216C28.9989 17.3776 28.3148 19.8869 27.0184 22.0897C25.7221 24.2926 23.8606 26.109 21.6267 27.351L17.1333 29.8483C16.7869 30.0416 16.3967 30.1431 16 30.143ZM16 3.9163C15.9413 3.91578 15.8837 3.93146 15.8333 3.96163C14.3093 4.90358 12.689 5.67999 11 6.27763C9.15767 6.92787 7.24554 7.36015 5.30267 7.56563C5.22014 7.57264 5.14325 7.61037 5.0872 7.67136C5.03116 7.73234 5.00004 7.81214 5 7.89496V14.823C5.00071 17.0223 5.58922 19.1815 6.70461 21.0771C7.82 22.9726 9.42173 24.5356 11.344 25.6043L15.8373 28.1003C15.8866 28.128 15.9422 28.1425 15.9987 28.1425C16.0552 28.1425 16.1107 28.128 16.16 28.1003L20.656 25.6043C22.5783 24.5356 24.18 22.9726 25.2954 21.0771C26.4108 19.1815 26.9993 17.0223 27 14.823V7.89363C27 7.81081 26.9688 7.73101 26.9128 7.67002C26.8568 7.60904 26.7799 7.57131 26.6973 7.5643C24.7545 7.35882 22.8423 6.92654 21 6.2763C19.3111 5.6795 17.6908 4.90399 16.1667 3.96296C16.1166 3.93207 16.0588 3.9159 16 3.9163Z" fill="#171717"/>
<path d="M15.3335 19.0003C15.0885 19.0005 14.852 18.9103 14.6695 18.747L11.6695 16.0803C11.4834 15.9011 11.374 15.6569 11.364 15.3987C11.3541 15.1406 11.4444 14.8887 11.616 14.6957C11.7877 14.5026 12.0274 14.3835 12.2849 14.3633C12.5424 14.343 12.7977 14.4232 12.9975 14.587L15.2695 16.6057L19.6041 11.983C19.6934 11.885 19.8012 11.8057 19.9214 11.7497C20.0416 11.6938 20.1717 11.6623 20.3041 11.657C20.4366 11.6518 20.5687 11.673 20.693 11.7193C20.8172 11.7656 20.9309 11.8362 21.0276 11.9268C21.1243 12.0175 21.202 12.1265 21.2562 12.2475C21.3104 12.3685 21.34 12.499 21.3432 12.6316C21.3465 12.7641 21.3234 12.8959 21.2753 13.0194C21.2271 13.1429 21.1549 13.2556 21.0628 13.351L16.0628 18.6843C15.9694 18.7842 15.8565 18.8639 15.731 18.9182C15.6055 18.9726 15.4702 19.0005 15.3335 19.0003Z" fill="#171717"/>
</svg>
