<svg width="32" height="32" viewBox="0 0 32 32" fill="none" xmlns="http://www.w3.org/2000/svg">
<path d="M27.9989 8.97314C27.9722 8.97314 27.9322 8.97314 27.8922 8.97314C20.8389 8.26647 13.7989 7.99981 6.82558 8.70647L4.10558 8.97314C3.54558 9.02647 3.05224 8.62647 2.99891 8.06647C2.94558 7.50647 3.34558 7.02647 3.89224 6.97314L6.61224 6.70647C13.7056 5.98647 20.8922 6.26647 28.0922 6.97314C28.6389 7.02647 29.0389 7.51981 28.9856 8.06647C28.9456 8.58647 28.5056 8.97314 27.9989 8.97314Z" fill="#FF445B"/>
<path d="M11.333 7.62699C11.2797 7.62699 11.2264 7.62699 11.1597 7.61366C10.6264 7.52033 10.253 7.00033 10.3464 6.46699L10.6397 4.72033C10.853 3.44033 11.1464 1.66699 14.253 1.66699H17.7464C20.8664 1.66699 21.1597 3.50699 21.3597 4.73366L21.653 6.46699C21.7464 7.01366 21.373 7.53366 20.8397 7.61366C20.293 7.70699 19.773 7.33366 19.693 6.80033L19.3997 5.06699C19.213 3.90699 19.173 3.68033 17.7597 3.68033H14.2664C12.853 3.68033 12.8264 3.86699 12.6264 5.05366L12.3197 6.78699C12.2397 7.28033 11.813 7.62699 11.333 7.62699Z" fill="#FF445B"/>
<path d="M20.2792 30.3334H11.7192C7.06588 30.3334 6.87921 27.7601 6.73255 25.6801L5.86588 12.2534C5.82588 11.7068 6.25255 11.2268 6.79921 11.1868C7.35921 11.1601 7.82588 11.5734 7.86588 12.1201L8.73255 25.5468C8.87921 27.5734 8.93255 28.3334 11.7192 28.3334H20.2792C23.0792 28.3334 23.1325 27.5734 23.2659 25.5468L24.1325 12.1201C24.1725 11.5734 24.6525 11.1601 25.1992 11.1868C25.7459 11.2268 26.1725 11.6934 26.1325 12.2534L25.2659 25.6801C25.1192 27.7601 24.9325 30.3334 20.2792 30.3334Z" fill="#FF445B"/>
<path d="M18.2134 23H13.7734C13.2268 23 12.7734 22.5467 12.7734 22C12.7734 21.4533 13.2268 21 13.7734 21H18.2134C18.7601 21 19.2134 21.4533 19.2134 22C19.2134 22.5467 18.7601 23 18.2134 23Z" fill="#FF445B"/>
<path d="M19.3346 17.667H12.668C12.1213 17.667 11.668 17.2137 11.668 16.667C11.668 16.1203 12.1213 15.667 12.668 15.667H19.3346C19.8813 15.667 20.3346 16.1203 20.3346 16.667C20.3346 17.2137 19.8813 17.667 19.3346 17.667Z" fill="#FF445B"/>
</svg>
