<svg width="32" height="32" viewBox="0 0 32 32" fill="none" xmlns="http://www.w3.org/2000/svg">
<path d="M16.2115 15.4932C16.1715 15.4932 16.1448 15.4932 16.1048 15.4932C16.0381 15.4798 15.9448 15.4798 15.8648 15.4932C11.9981 15.3732 9.07812 12.3332 9.07812 8.5865C9.07812 4.77317 12.1848 1.6665 15.9981 1.6665C19.8115 1.6665 22.9181 4.77317 22.9181 8.5865C22.9048 12.3332 19.9715 15.3732 16.2515 15.4932C16.2381 15.4932 16.2248 15.4932 16.2115 15.4932ZM15.9981 3.6665C13.2915 3.6665 11.0781 5.87984 11.0781 8.5865C11.0781 11.2532 13.1581 13.3998 15.8115 13.4932C15.8781 13.4798 16.0648 13.4798 16.2381 13.4932C18.8515 13.3732 20.9048 11.2265 20.9181 8.5865C20.9181 5.87984 18.7048 3.6665 15.9981 3.6665Z" fill="#171717"/>
<path d="M16.2261 30.0668C13.6128 30.0668 10.9861 29.4002 8.99948 28.0668C7.14615 26.8402 6.13281 25.1602 6.13281 23.3335C6.13281 21.5068 7.14615 19.8135 8.99948 18.5735C12.9995 15.9202 19.4795 15.9202 23.4528 18.5735C25.2928 19.8002 26.3195 21.4802 26.3195 23.3068C26.3195 25.1335 25.3061 26.8268 23.4528 28.0668C21.4528 29.4002 18.8395 30.0668 16.2261 30.0668ZM10.1061 20.2535C8.82615 21.1068 8.13281 22.2002 8.13281 23.3468C8.13281 24.4802 8.83948 25.5735 10.1061 26.4135C13.4261 28.6402 19.0261 28.6402 22.3461 26.4135C23.6261 25.5602 24.3195 24.4668 24.3195 23.3202C24.3195 22.1868 23.6128 21.0935 22.3461 20.2535C19.0261 18.0402 13.4261 18.0402 10.1061 20.2535Z" fill="#171717"/>
</svg>
