<svg width="32" height="32" viewBox="0 0 32 32" fill="none" xmlns="http://www.w3.org/2000/svg">
<path d="M17.332 13H9.33203C8.78536 13 8.33203 12.5467 8.33203 12C8.33203 11.4533 8.78536 11 9.33203 11H17.332C17.8787 11 18.332 11.4533 18.332 12C18.332 12.5467 17.8787 13 17.332 13Z" fill="#292D32"/>
<path d="M25.3852 19.7337C23.3719 19.7337 21.6652 18.2404 21.5052 16.3204C21.3986 15.2137 21.7986 14.1338 22.5986 13.3471C23.2653 12.6538 24.2119 12.2671 25.2119 12.2671H27.9986C29.3186 12.3071 30.3319 13.347 30.3319 14.627V17.3738C30.3319 18.6538 29.3186 19.6937 28.0386 19.7337H25.3852ZM27.9585 14.2671H25.2252C24.7586 14.2671 24.3319 14.4404 24.0253 14.7604C23.6386 15.1338 23.4519 15.6404 23.5052 16.1471C23.5719 17.0271 24.4252 17.7337 25.3852 17.7337H27.9986C28.1719 17.7337 28.3319 17.5738 28.3319 17.3738V14.627C28.3319 14.427 28.1719 14.2804 27.9585 14.2671Z" fill="#292D32"/>
<path d="M21.3346 28.3332H9.33463C4.74797 28.3332 1.66797 25.2532 1.66797 20.6665V11.3332C1.66797 7.2265 4.20127 4.25318 8.1346 3.75985C8.4946 3.70651 8.90797 3.6665 9.33463 3.6665H21.3346C21.6546 3.6665 22.068 3.67983 22.4946 3.7465C26.428 4.19983 29.0013 7.1865 29.0013 11.3332V13.2665C29.0013 13.8132 28.548 14.2665 28.0013 14.2665H25.2279C24.7613 14.2665 24.3347 14.4398 24.028 14.7598L24.0146 14.7732C23.6413 15.1332 23.468 15.6265 23.508 16.1331C23.5746 17.0131 24.4279 17.7198 25.3879 17.7198H28.0013C28.548 17.7198 29.0013 18.1731 29.0013 18.7198V20.6532C29.0013 25.2532 25.9213 28.3332 21.3346 28.3332ZM9.33463 5.6665C9.01464 5.6665 8.70795 5.69315 8.40129 5.73315C5.46795 6.10649 3.66797 8.23984 3.66797 11.3332V20.6665C3.66797 24.1065 5.89464 26.3332 9.33463 26.3332H21.3346C24.7746 26.3332 27.0013 24.1065 27.0013 20.6665V19.7332H25.3879C23.3746 19.7332 21.668 18.2398 21.508 16.3198C21.4013 15.2265 21.8013 14.1332 22.6013 13.3599C23.2947 12.6532 24.2279 12.2665 25.2279 12.2665H27.0013V11.3332C27.0013 8.21317 25.1746 6.06647 22.2146 5.71981C21.8946 5.66647 21.6146 5.6665 21.3346 5.6665H9.33463Z" fill="#292D32"/>
</svg>
