<svg width="20" height="22" viewBox="0 0 20 22" fill="none" xmlns="http://www.w3.org/2000/svg">
<path d="M9.64736 5.19V8.52M9.66736 0.75C5.98736 0.75 3.00736 3.73 3.00736 7.41V9.51C3.00736 10.19 2.72736 11.21 2.37736 11.79L1.10736 13.91C0.327359 15.22 0.867358 16.68 2.30736 17.16C7.08864 18.75 12.2561 18.75 17.0374 17.16C17.3529 17.0548 17.6407 16.88 17.8795 16.6486C18.1184 16.4171 18.3022 16.135 18.4174 15.823C18.5326 15.511 18.5763 15.1771 18.5451 14.846C18.5139 14.5149 18.4088 14.195 18.2374 13.91L16.9674 11.79C16.6174 11.21 16.3374 10.18 16.3374 9.51V7.41C16.3274 3.75 13.3274 0.75 9.66736 0.75Z" stroke="#BDC1DF" stroke-width="1.5" stroke-miterlimit="10" stroke-linecap="round"/>
<path d="M12.9774 17.5698C12.9774 19.3998 11.4774 20.8998 9.64738 20.8998C8.73738 20.8998 7.89738 20.5198 7.29738 19.9198C6.69738 19.3198 6.31738 18.4798 6.31738 17.5698" stroke="#BDC1DF" stroke-width="1.5" stroke-miterlimit="10"/>
</svg>
