<svg width="24" height="24" viewBox="0 0 24 24" fill="none" xmlns="http://www.w3.org/2000/svg">
<path d="M12.1211 10.8682L12.1514 10.8701H12.1221C12.0877 10.8666 12.0535 10.864 12.0195 10.8633C12.0511 10.8639 12.0867 10.8655 12.1211 10.8682ZM11.9893 10.8623C11.9817 10.8623 11.9743 10.8631 11.9668 10.8633L11.9697 10.8623H11.9893ZM12.4014 10.8555C12.3822 10.8571 12.363 10.858 12.3438 10.8594C12.363 10.8579 12.3822 10.8572 12.4014 10.8555ZM12.6201 10.8311C12.5948 10.8345 12.5694 10.8368 12.5439 10.8398C12.5694 10.8368 12.5948 10.8345 12.6201 10.8311ZM12.8584 10.792C12.8121 10.8008 12.7655 10.808 12.7188 10.8154C12.7655 10.8079 12.8122 10.801 12.8584 10.792ZM16.3877 7.10156C16.1077 8.96159 14.6969 10.4334 12.873 10.7891C14.7003 10.4282 16.1077 8.95 16.3877 7.09961V7.10156ZM7.58008 6.88477C7.64464 7.54322 7.85179 8.15788 8.16992 8.69824C7.88594 8.21741 7.69114 7.67833 7.60645 7.10254L7.58008 6.88477ZM16.4326 6.66211C16.4287 6.73653 16.4225 6.81041 16.415 6.88379C16.4298 6.73904 16.4377 6.59184 16.4385 6.44336L16.4326 6.66211ZM7.8291 4.91699C7.7542 5.1208 7.69391 5.33149 7.64941 5.54785C7.69391 5.33113 7.75414 5.12011 7.8291 4.91602V4.91699ZM13.5225 2.27051C14.9494 2.79458 16.0362 4.03181 16.3477 5.54688C16.2141 4.89798 15.9379 4.3001 15.5537 3.78711C15.4684 3.67309 15.3779 3.56323 15.2822 3.45801C15.1865 3.3527 15.0858 3.252 14.9805 3.15625C14.9279 3.10844 14.8742 3.06189 14.8193 3.0166C14.5998 2.83529 14.363 2.67416 14.1113 2.53711C14.0485 2.50292 13.9845 2.47065 13.9199 2.43945C13.8552 2.40819 13.79 2.37777 13.7236 2.34961L13.5225 2.27051ZM11.1055 2.09082C10.745 2.16502 10.4004 2.28324 10.0771 2.43945C10.0125 2.47065 9.94858 2.50291 9.88574 2.53711C9.69697 2.63991 9.51681 2.75664 9.3457 2.88477C9.00352 3.14091 8.6995 3.44492 8.44336 3.78711C8.31523 3.95821 8.1985 4.13838 8.0957 4.32715C8.71197 3.19466 9.80665 2.35779 11.1055 2.09082ZM13.1055 2.14062H13.1064H13.1055Z" stroke="#BDC1DF" stroke-width="1.5"/>
<path d="M7.16309 20.4336L6.76855 21.0215L6.77051 21.0186L7.16309 20.4326V20.4336ZM5.92773 19.2578C5.91435 19.2387 5.90158 19.2194 5.88867 19.2002C5.90159 19.2194 5.91441 19.2388 5.92773 19.2578ZM5.8125 19.082C5.79926 19.0606 5.7861 19.0392 5.77344 19.0176C5.78612 19.0392 5.79931 19.0606 5.8125 19.082ZM5.71289 18.9102C5.69598 18.8787 5.67977 18.8471 5.66406 18.8154C5.67984 18.8472 5.69603 18.8788 5.71289 18.9102ZM5.61719 18.7158C5.60303 18.6846 5.58919 18.6535 5.57617 18.6221C5.58926 18.6535 5.60305 18.6847 5.61719 18.7158ZM5.53516 18.5186C5.52296 18.4858 5.51196 18.4528 5.50098 18.4199C5.51203 18.4529 5.52296 18.4859 5.53516 18.5186ZM5.46094 18.293C5.45724 18.28 5.45371 18.2669 5.4502 18.2539C5.45372 18.2669 5.45723 18.28 5.46094 18.293ZM5.41602 18.1143C5.40895 18.0818 5.40339 18.0492 5.39746 18.0166C5.40339 18.0493 5.40897 18.0819 5.41602 18.1143ZM5.37793 17.9004C5.37306 17.8656 5.3698 17.8307 5.36621 17.7959C5.36976 17.8309 5.37311 17.8657 5.37793 17.9004ZM5.34961 17.5049C5.34961 17.5033 5.34961 17.5016 5.34961 17.5C5.34961 16.4352 5.9341 15.377 7.16602 14.5527C8.51807 13.6567 10.3302 13.1876 12.1768 13.1875C14.0247 13.1875 15.8315 13.6581 17.1729 14.5537H17.1738C18.3989 15.3704 18.9893 16.4196 18.9893 17.4805C18.9893 17.4837 18.9893 17.487 18.9893 17.4902L18.9814 17.2695C18.8965 16.1784 18.1854 15.2369 17.1748 14.5664H17.1758C15.7791 13.6353 13.9518 13.1954 12.1699 13.1953C10.388 13.1953 8.56083 13.6353 7.16406 14.5664C6.07345 15.2935 5.35167 16.3165 5.34961 17.5049ZM5.35742 17.707C5.3542 17.6622 5.35268 17.6172 5.35156 17.5723C5.35255 17.6174 5.35432 17.6623 5.35742 17.707Z" stroke="#BDC1DF" stroke-width="1.5"/>
</svg>
