<svg width="19" height="22" viewBox="0 0 19 22" fill="none" xmlns="http://www.w3.org/2000/svg">
<path d="M5.0008 6.41156V5.44156C5.0008 3.19156 6.8108 0.981563 9.0608 0.771563C9.68598 0.710141 10.3171 0.780291 10.9135 0.977501C11.5099 1.17471 12.0585 1.49461 12.5238 1.91661C12.9891 2.33861 13.3609 2.85336 13.6153 3.42773C13.8697 4.00211 14.001 4.62338 14.0008 5.25156V6.63156M6.5008 20.7416H12.5008C16.5208 20.7416 17.2408 19.1316 17.4508 17.1716L18.2008 11.1716C18.4708 8.73156 17.7708 6.74156 13.5008 6.74156H5.5008C1.2308 6.74156 0.530803 8.73156 0.800803 11.1716L1.5508 17.1716C1.7608 19.1316 2.4808 20.7416 6.5008 20.7416Z" stroke="#BDC1DF" stroke-width="1.5" stroke-miterlimit="10" stroke-linecap="round" stroke-linejoin="round"/>
</svg>
